solid shield_pyramid
  facet normal 0.000000e+00 -5.074472e-01 8.616828e-01
    outer loop
      vertex 0.000000e+00 0.000000e+00 2.032452e+00
      vertex -3.451254e+00 -3.451254e+00 0.000000e+00
      vertex 3.451254e+00 -3.451254e+00 0.000000e+00
    endloop
  endfacet
  facet normal 5.074472e-01 0.000000e+00 8.616828e-01
    outer loop
      vertex 0.000000e+00 0.000000e+00 2.032452e+00
      vertex 3.451254e+00 -3.451254e+00 0.000000e+00
      vertex 3.451254e+00 3.451254e+00 0.000000e+00
    endloop
  endfacet
  facet normal 0.000000e+00 5.074472e-01 8.616828e-01
    outer loop
      vertex 0.000000e+00 0.000000e+00 2.032452e+00
      vertex 3.451254e+00 3.451254e+00 0.000000e+00
      vertex -3.451254e+00 3.451254e+00 0.000000e+00
    endloop
  endfacet
  facet normal -5.074472e-01 0.000000e+00 8.616828e-01
    outer loop
      vertex 0.000000e+00 0.000000e+00 2.032452e+00
      vertex -3.451254e+00 3.451254e+00 0.000000e+00
      vertex -3.451254e+00 -3.451254e+00 0.000000e+00
    endloop
  endfacet
  facet normal 0.000000e+00 0.000000e+00 1.000000e+00
    outer loop
      vertex -3.451254e+00 -3.451254e+00 0.000000e+00
      vertex 3.451254e+00 -3.451254e+00 0.000000e+00
      vertex 3.451254e+00 3.451254e+00 0.000000e+00
    endloop
  endfacet
  facet normal 0.000000e+00 0.000000e+00 1.000000e+00
    outer loop
      vertex -3.451254e+00 -3.451254e+00 0.000000e+00
      vertex 3.451254e+00 3.451254e+00 0.000000e+00
      vertex -3.451254e+00 3.451254e+00 0.000000e+00
    endloop
  endfacet
endsolid shield_pyramid